<svg id="visual" viewBox="0 0 900 600" width="900" height="600" xmlns="http://www.w3.org/2000/svg" xmlns:xlink="http://www.w3.org/1999/xlink" version="1.1"><rect x="0" y="0" width="900" height="600" fill="#030d14"></rect><path d="M0 316L13.7 311.7C27.3 307.3 54.7 298.7 82 295.2C109.3 291.7 136.7 293.3 163.8 307.3C191 321.3 218 347.7 245.2 360.2C272.3 372.7 299.7 371.3 327 368.2C354.3 365 381.7 360 409 352.7C436.3 345.3 463.7 335.7 491 329C518.3 322.3 545.7 318.7 573 325.5C600.3 332.3 627.7 349.7 654.8 358C682 366.3 709 365.7 736.2 355C763.3 344.3 790.7 323.7 818 311.3C845.3 299 872.7 295 886.3 293L900 291L900 601L886.3 601C872.7 601 845.3 601 818 601C790.7 601 763.3 601 736.2 601C709 601 682 601 654.8 601C627.7 601 600.3 601 573 601C545.7 601 518.3 601 491 601C463.7 601 436.3 601 409 601C381.7 601 354.3 601 327 601C299.7 601 272.3 601 245.2 601C218 601 191 601 163.8 601C136.7 601 109.3 601 82 601C54.7 601 27.3 601 13.7 601L0 601Z" fill="#232c40"></path><path d="M0 344L13.7 345.7C27.3 347.3 54.7 350.7 82 357.3C109.3 364 136.7 374 163.8 380C191 386 218 388 245.2 389.5C272.3 391 299.7 392 327 383.3C354.3 374.7 381.7 356.3 409 356.2C436.3 356 463.7 374 491 372.2C518.3 370.3 545.7 348.7 573 337.3C600.3 326 627.7 325 654.8 338.2C682 351.3 709 378.7 736.2 378.5C763.3 378.3 790.7 350.7 818 343.2C845.3 335.7 872.7 348.3 886.3 354.7L900 361L900 601L886.3 601C872.7 601 845.3 601 818 601C790.7 601 763.3 601 736.2 601C709 601 682 601 654.8 601C627.7 601 600.3 601 573 601C545.7 601 518.3 601 491 601C463.7 601 436.3 601 409 601C381.7 601 354.3 601 327 601C299.7 601 272.3 601 245.2 601C218 601 191 601 163.8 601C136.7 601 109.3 601 82 601C54.7 601 27.3 601 13.7 601L0 601Z" fill="#202739"></path><path d="M0 378L13.7 386.7C27.3 395.3 54.7 412.7 82 414.3C109.3 416 136.7 402 163.8 391.2C191 380.3 218 372.7 245.2 377C272.3 381.3 299.7 397.7 327 405.2C354.3 412.7 381.7 411.3 409 414.5C436.3 417.7 463.7 425.3 491 419.3C518.3 413.3 545.7 393.7 573 382.3C600.3 371 627.7 368 654.8 366.7C682 365.3 709 365.7 736.2 367.5C763.3 369.3 790.7 372.7 818 381.2C845.3 389.7 872.7 403.3 886.3 410.2L900 417L900 601L886.3 601C872.7 601 845.3 601 818 601C790.7 601 763.3 601 736.2 601C709 601 682 601 654.8 601C627.7 601 600.3 601 573 601C545.7 601 518.3 601 491 601C463.7 601 436.3 601 409 601C381.7 601 354.3 601 327 601C299.7 601 272.3 601 245.2 601C218 601 191 601 163.8 601C136.7 601 109.3 601 82 601C54.7 601 27.3 601 13.7 601L0 601Z" fill="#1e2331"></path><path d="M0 437L13.7 432.7C27.3 428.3 54.7 419.7 82 417.8C109.3 416 136.7 421 163.8 422.2C191 423.3 218 420.7 245.2 419C272.3 417.3 299.7 416.7 327 422.5C354.3 428.3 381.7 440.7 409 445C436.3 449.3 463.7 445.7 491 441.8C518.3 438 545.7 434 573 431.7C600.3 429.3 627.7 428.7 654.8 426.3C682 424 709 420 736.2 417.2C763.3 414.3 790.7 412.7 818 413.3C845.3 414 872.7 417 886.3 418.5L900 420L900 601L886.3 601C872.7 601 845.3 601 818 601C790.7 601 763.3 601 736.2 601C709 601 682 601 654.8 601C627.7 601 600.3 601 573 601C545.7 601 518.3 601 491 601C463.7 601 436.3 601 409 601C381.7 601 354.3 601 327 601C299.7 601 272.3 601 245.2 601C218 601 191 601 163.8 601C136.7 601 109.3 601 82 601C54.7 601 27.3 601 13.7 601L0 601Z" fill="#1b1e2a"></path><path d="M0 471L13.7 469.5C27.3 468 54.7 465 82 460.2C109.3 455.3 136.7 448.7 163.8 449.7C191 450.7 218 459.3 245.2 460C272.3 460.7 299.7 453.3 327 451.7C354.3 450 381.7 454 409 460.2C436.3 466.3 463.7 474.7 491 470.7C518.3 466.7 545.7 450.3 573 447.7C600.3 445 627.7 456 654.8 456.7C682 457.3 709 447.7 736.2 451.7C763.3 455.7 790.7 473.3 818 475.8C845.3 478.3 872.7 465.7 886.3 459.3L900 453L900 601L886.3 601C872.7 601 845.3 601 818 601C790.7 601 763.3 601 736.2 601C709 601 682 601 654.8 601C627.7 601 600.3 601 573 601C545.7 601 518.3 601 491 601C463.7 601 436.3 601 409 601C381.7 601 354.3 601 327 601C299.7 601 272.3 601 245.2 601C218 601 191 601 163.8 601C136.7 601 109.3 601 82 601C54.7 601 27.3 601 13.7 601L0 601Z" fill="#171a24"></path><path d="M0 505L13.7 501.7C27.3 498.3 54.7 491.7 82 490.3C109.3 489 136.7 493 163.8 495.2C191 497.3 218 497.7 245.2 493.7C272.3 489.7 299.7 481.3 327 483.7C354.3 486 381.7 499 409 505.2C436.3 511.3 463.7 510.7 491 507.5C518.3 504.3 545.7 498.7 573 498.5C600.3 498.3 627.7 503.7 654.8 501C682 498.3 709 487.7 736.2 489.2C763.3 490.7 790.7 504.3 818 505.8C845.3 507.3 872.7 496.7 886.3 491.3L900 486L900 601L886.3 601C872.7 601 845.3 601 818 601C790.7 601 763.3 601 736.2 601C709 601 682 601 654.8 601C627.7 601 600.3 601 573 601C545.7 601 518.3 601 491 601C463.7 601 436.3 601 409 601C381.7 601 354.3 601 327 601C299.7 601 272.3 601 245.2 601C218 601 191 601 163.8 601C136.7 601 109.3 601 82 601C54.7 601 27.3 601 13.7 601L0 601Z" fill="#14151d"></path><path d="M0 543L13.7 537.7C27.3 532.3 54.7 521.7 82 521.3C109.3 521 136.7 531 163.8 535.5C191 540 218 539 245.2 537.7C272.3 536.3 299.7 534.7 327 529.8C354.3 525 381.7 517 409 512.5C436.3 508 463.7 507 491 508.2C518.3 509.3 545.7 512.7 573 513.5C600.3 514.3 627.7 512.7 654.8 516.3C682 520 709 529 736.2 533.3C763.3 537.7 790.7 537.3 818 532.7C845.3 528 872.7 519 886.3 514.5L900 510L900 601L886.3 601C872.7 601 845.3 601 818 601C790.7 601 763.3 601 736.2 601C709 601 682 601 654.8 601C627.7 601 600.3 601 573 601C545.7 601 518.3 601 491 601C463.7 601 436.3 601 409 601C381.7 601 354.3 601 327 601C299.7 601 272.3 601 245.2 601C218 601 191 601 163.8 601C136.7 601 109.3 601 82 601C54.7 601 27.3 601 13.7 601L0 601Z" fill="#101016"></path><path d="M0 575L13.7 571.2C27.3 567.3 54.7 559.7 82 555.8C109.3 552 136.7 552 163.8 551.2C191 550.3 218 548.7 245.2 549.2C272.3 549.7 299.7 552.3 327 553.5C354.3 554.7 381.7 554.3 409 552.2C436.3 550 463.7 546 491 548.5C518.3 551 545.7 560 573 562.2C600.3 564.3 627.7 559.7 654.8 556C682 552.3 709 549.7 736.2 552.3C763.3 555 790.7 563 818 567.5C845.3 572 872.7 573 886.3 573.5L900 574L900 601L886.3 601C872.7 601 845.3 601 818 601C790.7 601 763.3 601 736.2 601C709 601 682 601 654.8 601C627.7 601 600.3 601 573 601C545.7 601 518.3 601 491 601C463.7 601 436.3 601 409 601C381.7 601 354.3 601 327 601C299.7 601 272.3 601 245.2 601C218 601 191 601 163.8 601C136.7 601 109.3 601 82 601C54.7 601 27.3 601 13.7 601L0 601Z" fill="#09090e"></path></svg>